<?xml version="1.0" encoding="UTF-8"?>
<svg xmlns="http://www.w3.org/2000/svg" xmlns:xlink="http://www.w3.org/1999/xlink" width="32px" height="32px" viewBox="0 0 32 32" version="1.1">
<g id="surface1">
<path style=" stroke:none;fill-rule:nonzero;fill:rgb(18.823529%,77.254902%,89.019608%);fill-opacity:1;" d="M 28 0 L 4 0 C 1.789062 0 0 1.789062 0 4 L 0 30.664062 C 0 31.1875 0.300781 31.660156 0.773438 31.878906 C 0.953125 31.957031 1.140625 32 1.335938 32 C 1.652344 32 1.957031 31.886719 2.199219 31.679688 L 10.035156 24.964844 C 10.761719 24.34375 11.683594 24 12.640625 24 L 28 24 C 30.210938 24 32 22.210938 32 20 L 32 4 C 32 1.789062 30.210938 0 28 0 Z M 29.335938 20 C 29.332031 20.734375 28.734375 21.332031 28 21.335938 L 12.640625 21.335938 C 11.046875 21.335938 9.507812 21.90625 8.300781 22.941406 L 2.664062 27.769531 L 2.664062 4 C 2.667969 3.265625 3.265625 2.667969 4 2.664062 L 28 2.664062 C 28.734375 2.667969 29.332031 3.265625 29.335938 4 Z M 29.335938 20 "/>
<path style=" stroke:none;fill-rule:nonzero;fill:rgb(17.647059%,77.254902%,89.019608%);fill-opacity:1;" d="M 22.664062 7.84375 L 9.335938 7.84375 C 8.839844 7.816406 8.367188 8.0625 8.109375 8.488281 C 7.855469 8.910156 7.855469 9.445312 8.109375 9.867188 C 8.367188 10.292969 8.839844 10.539062 9.335938 10.511719 L 22.664062 10.511719 C 23.160156 10.539062 23.632812 10.292969 23.890625 9.867188 C 24.144531 9.445312 24.144531 8.910156 23.890625 8.488281 C 23.632812 8.0625 23.160156 7.816406 22.664062 7.84375 Z M 22.664062 7.84375 "/>
<path style=" stroke:none;fill-rule:nonzero;fill:rgb(18.823529%,77.254902%,89.019608%);fill-opacity:1;" d="M 22.664062 13.179688 L 9.335938 13.179688 C 8.839844 13.148438 8.367188 13.398438 8.109375 13.820312 C 7.855469 14.246094 7.855469 14.777344 8.109375 15.203125 C 8.367188 15.628906 8.839844 15.875 9.335938 15.84375 L 22.664062 15.84375 C 23.160156 15.875 23.632812 15.628906 23.890625 15.203125 C 24.144531 14.777344 24.144531 14.246094 23.890625 13.820312 C 23.632812 13.398438 23.160156 13.148438 22.664062 13.179688 Z M 22.664062 13.179688 "/>
</g>
</svg>
