<?xml version="1.0" encoding="UTF-8"?>
<svg xmlns="http://www.w3.org/2000/svg" xmlns:xlink="http://www.w3.org/1999/xlink" width="32px" height="32px" viewBox="0 0 32 32" version="1.1">
<g id="surface1">
<path style=" stroke:none;fill-rule:nonzero;fill:rgb(91.764706%,93.72549%,94.117647%);fill-opacity:1;" d="M 6.667969 4 L 25.332031 4 C 27.175781 4 28.667969 5.492188 28.667969 7.332031 L 28.667969 25.332031 C 28.667969 27.175781 27.175781 28.667969 25.332031 28.667969 L 6.667969 28.667969 C 4.824219 28.667969 3.332031 27.175781 3.332031 25.332031 L 3.332031 7.332031 C 3.332031 5.492188 4.824219 4 6.667969 4 Z M 6.667969 4 "/>
<path style=" stroke:none;fill-rule:nonzero;fill:rgb(85.098039%,88.235294%,88.627451%);fill-opacity:1;" d="M 4.324219 4.964844 C 3.691406 5.589844 3.332031 6.441406 3.332031 7.332031 L 3.332031 25.332031 C 3.335938 27.171875 4.828125 28.664062 6.667969 28.667969 L 25.332031 28.667969 C 26.210938 28.667969 27.050781 28.320312 27.675781 27.703125 Z M 4.324219 4.964844 "/>
<path style=" stroke:none;fill-rule:nonzero;fill:rgb(0%,60.392157%,87.843137%);fill-opacity:1;" d="M 25.332031 4 L 6.667969 4 C 4.828125 4.003906 3.335938 5.492188 3.332031 7.332031 L 3.332031 10.667969 L 28.667969 10.667969 L 28.667969 7.332031 C 28.664062 5.492188 27.171875 4.003906 25.332031 4 Z M 25.332031 4 "/>
<path style=" stroke:none;fill-rule:nonzero;fill:rgb(0%,50.588235%,74.117647%);fill-opacity:1;" d="M 4.324219 4.964844 C 3.691406 5.589844 3.332031 6.441406 3.332031 7.332031 L 3.332031 10.667969 L 10.179688 10.667969 Z M 4.324219 4.964844 "/>
<path style=" stroke:none;fill-rule:nonzero;fill:rgb(56.078431%,64.705882%,64.705882%);fill-opacity:1;" d="M 21.800781 13.667969 L 24.199219 13.667969 C 24.640625 13.667969 25 14.023438 25 14.464844 L 25 16.867188 C 25 17.308594 24.640625 17.667969 24.199219 17.667969 L 21.800781 17.667969 C 21.359375 17.667969 21 17.308594 21 16.867188 L 21 14.464844 C 21 14.023438 21.359375 13.667969 21.800781 13.667969 Z M 21.800781 13.667969 "/>
<path style=" stroke:none;fill-rule:nonzero;fill:rgb(56.078431%,64.705882%,64.705882%);fill-opacity:1;" d="M 14.800781 13.667969 L 17.199219 13.667969 C 17.640625 13.667969 18 14.023438 18 14.464844 L 18 16.867188 C 18 17.308594 17.640625 17.667969 17.199219 17.667969 L 14.800781 17.667969 C 14.359375 17.667969 14 17.308594 14 16.867188 L 14 14.464844 C 14 14.023438 14.359375 13.667969 14.800781 13.667969 Z M 14.800781 13.667969 "/>
<path style=" stroke:none;fill-rule:nonzero;fill:rgb(48.235294%,54.901961%,54.901961%);fill-opacity:1;" d="M 14.011719 14.398438 C 14.011719 14.421875 14 14.441406 14 14.464844 L 14 16.867188 C 14 17.308594 14.359375 17.667969 14.800781 17.667969 L 17.199219 17.667969 C 17.246094 17.660156 17.292969 17.652344 17.339844 17.636719 Z M 14.011719 14.398438 "/>
<path style=" stroke:none;fill-rule:nonzero;fill:rgb(48.235294%,54.901961%,54.901961%);fill-opacity:1;" d="M 14.800781 20.332031 L 17.199219 20.332031 C 17.640625 20.332031 18 20.691406 18 21.132812 L 18 23.535156 C 18 23.976562 17.640625 24.332031 17.199219 24.332031 L 14.800781 24.332031 C 14.359375 24.332031 14 23.976562 14 23.535156 L 14 21.132812 C 14 20.691406 14.359375 20.332031 14.800781 20.332031 Z M 14.800781 20.332031 "/>
<path style=" stroke:none;fill-rule:nonzero;fill:rgb(48.235294%,54.901961%,54.901961%);fill-opacity:1;" d="M 7.800781 13.667969 L 10.199219 13.667969 C 10.640625 13.667969 11 14.023438 11 14.464844 L 11 16.867188 C 11 17.308594 10.640625 17.667969 10.199219 17.667969 L 7.800781 17.667969 C 7.359375 17.667969 7 17.308594 7 16.867188 L 7 14.464844 C 7 14.023438 7.359375 13.667969 7.800781 13.667969 Z M 7.800781 13.667969 "/>
<path style=" stroke:none;fill-rule:nonzero;fill:rgb(48.235294%,54.901961%,54.901961%);fill-opacity:1;" d="M 7.800781 20.332031 L 10.199219 20.332031 C 10.640625 20.332031 11 20.691406 11 21.132812 L 11 23.535156 C 11 23.976562 10.640625 24.332031 10.199219 24.332031 L 7.800781 24.332031 C 7.359375 24.332031 7 23.976562 7 23.535156 L 7 21.132812 C 7 20.691406 7.359375 20.332031 7.800781 20.332031 Z M 7.800781 20.332031 "/>
<path style=" stroke:none;fill-rule:nonzero;fill:rgb(17.647059%,29.019608%,37.647059%);fill-opacity:1;" d="M 10 1.332031 C 10.738281 1.332031 11.332031 1.929688 11.332031 2.667969 L 11.332031 5.332031 C 11.332031 6.070312 10.738281 6.667969 10 6.667969 C 9.261719 6.667969 8.667969 6.070312 8.667969 5.332031 L 8.667969 2.667969 C 8.667969 1.929688 9.261719 1.332031 10 1.332031 Z M 10 1.332031 "/>
<path style=" stroke:none;fill-rule:nonzero;fill:rgb(17.647059%,29.019608%,37.647059%);fill-opacity:1;" d="M 22 1.332031 C 22.738281 1.332031 23.332031 1.929688 23.332031 2.667969 L 23.332031 5.332031 C 23.332031 6.070312 22.738281 6.667969 22 6.667969 C 21.261719 6.667969 20.667969 6.070312 20.667969 5.332031 L 20.667969 2.667969 C 20.667969 1.929688 21.261719 1.332031 22 1.332031 Z M 22 1.332031 "/>
<path style=" stroke:none;fill-rule:nonzero;fill:rgb(17.647059%,29.019608%,37.647059%);fill-opacity:1;" d="M 30 23.332031 C 30 27.015625 27.015625 30 23.332031 30 C 19.652344 30 16.667969 27.015625 16.667969 23.332031 C 16.667969 19.652344 19.652344 16.667969 23.332031 16.667969 C 27.015625 16.667969 30 19.652344 30 23.332031 Z M 30 23.332031 "/>
<path style=" stroke:none;fill-rule:nonzero;fill:rgb(91.764706%,93.72549%,94.117647%);fill-opacity:1;" d="M 28.667969 23.332031 C 28.667969 26.277344 26.277344 28.667969 23.332031 28.667969 C 20.386719 28.667969 18 26.277344 18 23.332031 C 18 20.386719 20.386719 18 23.332031 18 C 26.277344 18 28.667969 20.386719 28.667969 23.332031 Z M 28.667969 23.332031 "/>
<path style=" stroke:none;fill-rule:nonzero;fill:rgb(17.647059%,29.019608%,37.647059%);fill-opacity:1;" d="M 25.332031 24 L 23.332031 24 C 22.964844 24 22.667969 23.703125 22.667969 23.332031 L 22.667969 20 C 22.667969 19.632812 22.964844 19.332031 23.332031 19.332031 C 23.703125 19.332031 24 19.632812 24 20 L 24 22.667969 L 25.332031 22.667969 C 25.703125 22.667969 26 22.964844 26 23.332031 C 26 23.703125 25.703125 24 25.332031 24 Z M 25.332031 24 "/>
</g>
</svg>
