<?xml version="1.0" encoding="UTF-8"?>
<svg xmlns="http://www.w3.org/2000/svg" xmlns:xlink="http://www.w3.org/1999/xlink" width="32px" height="32px" viewBox="0 0 32 32" version="1.1">
<g id="surface1">
<path style=" stroke:none;fill-rule:evenodd;fill:rgb(5.882353%,4.705882%,5.098039%);fill-opacity:1;" d="M 17.6875 21.125 C 17.296875 21.125 17.113281 20.660156 17.367188 20.386719 L 17.792969 19.9375 L 16.5 19.9375 C 15.921875 19.9375 15.921875 19.0625 16.5 19.0625 L 17.792969 19.0625 C 17.496094 18.75 16.996094 18.371094 17.386719 17.992188 C 17.5625 17.824219 17.835938 17.835938 18.007812 18.011719 L 19 19.0625 L 21.125 19.0625 L 21.125 16.988281 L 20.070312 15.929688 C 19.660156 15.523438 20.28125 14.90625 20.6875 15.3125 L 21.125 15.75 L 21.125 14.4375 C 21.125 13.859375 22 13.859375 22 14.4375 L 22 15.761719 C 22.296875 15.46875 22.683594 14.925781 23.070312 15.3125 C 23.238281 15.480469 23.238281 15.761719 23.070312 15.929688 L 22 17 L 22 19.0625 L 24.390625 19.0625 C 24.09375 18.765625 23.558594 18.378906 23.945312 17.992188 C 24.113281 17.824219 24.394531 17.824219 24.5625 17.992188 L 25.632812 19.0625 C 26.289062 19.0625 27.0625 18.917969 27.0625 19.5 C 27.0625 20.085938 26.285156 19.9375 25.613281 19.9375 L 24.5625 20.988281 C 24.152344 21.414062 23.539062 20.78125 23.945312 20.375 L 24.378906 19.9375 L 22 19.9375 L 22 22.320312 C 22.296875 22.027344 22.683594 21.492188 23.070312 21.875 C 23.238281 22.042969 23.238281 22.324219 23.070312 22.492188 L 22 23.5625 C 22 24.226562 22.144531 25 21.5625 25 C 20.976562 25 21.125 24.222656 21.125 23.550781 L 20.070312 22.492188 C 19.664062 22.085938 20.28125 21.46875 20.6875 21.875 L 21.125 22.308594 L 21.125 19.9375 L 19 19.9375 L 18.007812 20.988281 C 17.917969 21.082031 17.804688 21.125 17.6875 21.125 Z M 21.125 30.1875 L 19.375 30.1875 L 19.375 31.125 L 21.125 31.125 Z M 18.5 30.1875 L 10.5625 30.1875 L 10.5625 31.125 L 18.5 31.125 Z M 9.6875 30.1875 L 7.9375 30.1875 L 7.9375 31.125 L 9.6875 31.125 Z M 7.0625 29.75 L 7.0625 0.4375 C 7.0625 0.195312 7.257812 0 7.5 0 L 21.5625 0 C 21.804688 0 22 0.195312 22 0.4375 L 22 11.875 C 22 12.453125 21.125 12.453125 21.125 11.875 L 21.125 10.25 L 7.9375 10.25 L 7.9375 29.3125 L 21.125 29.3125 L 21.125 26.1875 C 21.125 25.609375 22 25.609375 22 26.1875 L 22 31.125 L 23.1875 31.125 C 23.765625 31.125 23.765625 32 23.1875 32 L 5.375 32 C 4.796875 32 4.796875 31.125 5.375 31.125 L 7.0625 31.125 Z M 21.125 9.375 L 21.125 0.875 L 7.9375 0.875 L 7.9375 9.375 Z M 13.949219 7.65625 L 8.9375 7.65625 C 8.695312 7.65625 8.5 7.460938 8.5 7.21875 L 8.5 5.5625 C 8.5 5.320312 8.695312 5.125 8.9375 5.125 L 13.949219 5.125 C 14.195312 5.125 14.386719 5.320312 14.386719 5.5625 L 14.386719 7.21875 C 14.386719 7.460938 14.195312 7.65625 13.949219 7.65625 Z M 9.375 6.78125 L 13.511719 6.78125 L 13.511719 6 L 9.375 6 Z M 11 18.0625 L 9.375 18.0625 C 9.132812 18.0625 8.9375 17.867188 8.9375 17.625 L 8.9375 12.5625 C 8.9375 12.320312 9.132812 12.125 9.375 12.125 L 11 12.125 C 11.242188 12.125 11.4375 12.320312 11.4375 12.5625 L 11.4375 17.625 C 11.4375 17.867188 11.242188 18.0625 11 18.0625 Z M 9.8125 17.1875 L 10.5625 17.1875 L 10.5625 13 L 9.8125 13 Z M 9.8125 17.1875 "/>
<path style=" stroke:none;fill-rule:evenodd;fill:rgb(97.647059%,97.647059%,97.647059%);fill-opacity:1;" d="M 7.9375 9.375 L 21.125 9.375 L 21.125 0.875 L 7.9375 0.875 Z M 14.386719 7.21875 C 14.386719 7.460938 14.195312 7.65625 13.949219 7.65625 L 8.9375 7.65625 C 8.695312 7.65625 8.5 7.460938 8.5 7.21875 L 8.5 5.5625 C 8.5 5.320312 8.695312 5.125 8.9375 5.125 L 13.949219 5.125 C 14.195312 5.125 14.386719 5.320312 14.386719 5.5625 Z M 14.386719 7.21875 "/>
<path style=" stroke:none;fill-rule:evenodd;fill:rgb(66.666667%,86.666667%,89.019608%);fill-opacity:1;" d="M 9.375 6.78125 L 13.511719 6.78125 L 13.511719 6 L 9.375 6 Z M 9.375 6.78125 "/>
<path style=" stroke:none;fill-rule:evenodd;fill:rgb(66.666667%,86.666667%,89.019608%);fill-opacity:1;" d="M 10.5625 17.1875 L 10.5625 13 L 9.8125 13 L 9.8125 17.1875 Z M 10.5625 17.1875 "/>
<path style=" stroke:none;fill-rule:evenodd;fill:rgb(66.666667%,86.666667%,89.019608%);fill-opacity:1;" d="M 18.5 30.1875 L 10.5625 30.1875 L 10.5625 31.125 L 18.5 31.125 Z M 18.5 30.1875 "/>
<path style=" stroke:none;fill-rule:evenodd;fill:rgb(66.666667%,86.666667%,89.019608%);fill-opacity:1;" d="M 19.375 30.1875 L 19.375 31.125 L 21.125 31.125 L 21.125 30.1875 Z M 19.375 30.1875 "/>
<path style=" stroke:none;fill-rule:evenodd;fill:rgb(66.666667%,86.666667%,89.019608%);fill-opacity:1;" d="M 9.6875 31.125 L 9.6875 30.1875 L 7.9375 30.1875 L 7.9375 31.125 Z M 9.6875 31.125 "/>
<path style=" stroke:none;fill-rule:evenodd;fill:rgb(66.666667%,86.666667%,89.019608%);fill-opacity:1;" d="M 21.574219 14.003906 L 21.574219 12.308594 C 21.351562 12.3125 21.125 12.167969 21.125 11.875 L 21.125 10.25 L 7.9375 10.25 L 7.9375 29.3125 L 21.125 29.3125 L 21.125 26.1875 C 21.125 25.894531 21.351562 25.75 21.574219 25.753906 L 21.574219 25 C 21.570312 25 21.566406 25 21.5625 25 C 20.976562 25 21.125 24.222656 21.125 23.550781 L 20.070312 22.492188 C 19.664062 22.085938 20.28125 21.46875 20.6875 21.875 L 21.125 22.308594 L 21.125 19.9375 L 19 19.9375 L 18.007812 20.988281 C 17.917969 21.082031 17.804688 21.125 17.6875 21.125 C 17.296875 21.125 17.113281 20.660156 17.367188 20.386719 L 17.792969 19.9375 L 16.5 19.9375 C 15.921875 19.9375 15.921875 19.0625 16.5 19.0625 L 17.792969 19.0625 C 17.496094 18.75 16.996094 18.371094 17.386719 17.992188 C 17.5625 17.824219 17.835938 17.835938 18.007812 18.011719 L 19 19.0625 L 21.125 19.0625 L 21.125 16.988281 L 20.070312 15.929688 C 19.660156 15.523438 20.28125 14.90625 20.6875 15.3125 L 21.125 15.75 L 21.125 14.4375 C 21.125 14.144531 21.351562 14 21.574219 14.003906 Z M 11.4375 12.5625 L 11.4375 17.625 C 11.4375 17.867188 11.242188 18.0625 11 18.0625 L 9.375 18.0625 C 9.132812 18.0625 8.9375 17.867188 8.9375 17.625 L 8.9375 12.5625 C 8.9375 12.320312 9.132812 12.125 9.375 12.125 L 11 12.125 C 11.242188 12.125 11.4375 12.320312 11.4375 12.5625 Z M 11.4375 12.5625 "/>
</g>
</svg>
