<?xml version="1.0" encoding="UTF-8"?>
<svg xmlns="http://www.w3.org/2000/svg" xmlns:xlink="http://www.w3.org/1999/xlink" width="32px" height="32px" viewBox="0 0 32 32" version="1.1">
<g id="surface1">
<path style=" stroke:none;fill-rule:evenodd;fill:rgb(68.235294%,79.607843%,81.960784%);fill-opacity:1;" d="M 28.382812 30.9375 L 24.566406 30.9375 C 23.753906 30.9375 23.09375 30.277344 23.09375 29.464844 L 23.09375 23.390625 C 23.09375 23.023438 23.628906 23.007812 23.675781 23.34375 L 29.273438 23.34375 C 29.320312 23.007812 29.855469 23.023438 29.855469 23.390625 L 29.855469 29.464844 C 29.855469 30.277344 29.195312 30.9375 28.382812 30.9375 Z M 28.382812 30.9375 "/>
<path style=" stroke:none;fill-rule:evenodd;fill:rgb(43.921569%,67.058824%,67.058824%);fill-opacity:1;" d="M 26.769531 30.9375 L 26.179688 30.9375 L 26.179688 23.34375 L 26.769531 23.34375 Z M 26.769531 30.9375 "/>
<path style=" stroke:none;fill-rule:evenodd;fill:rgb(70.196078%,83.137255%,85.882353%);fill-opacity:1;" d="M 31.578125 23.5 C 28.136719 23.5 24.8125 23.5 21.371094 23.5 C 21.210938 23.5 21.078125 23.367188 21.078125 23.207031 L 21.078125 16.101562 C 21.078125 14.3125 22.535156 12.855469 24.324219 12.855469 L 28.625 12.855469 C 30.414062 12.855469 31.871094 14.3125 31.871094 16.101562 L 31.871094 23.207031 C 31.871094 23.367188 31.738281 23.5 31.578125 23.5 Z M 31.578125 23.5 "/>
<path style=" stroke:none;fill-rule:evenodd;fill:rgb(79.215686%,84.705882%,85.882353%);fill-opacity:1;" d="M 26.476562 12.191406 C 24.871094 12.191406 23.570312 10.886719 23.570312 9.285156 C 23.570312 7.679688 24.871094 6.378906 26.476562 6.378906 C 28.078125 6.378906 29.378906 7.679688 29.378906 9.285156 C 29.378906 10.886719 28.078125 12.191406 26.476562 12.191406 Z M 26.476562 12.191406 "/>
<path style=" stroke:none;fill-rule:evenodd;fill:rgb(45.490196%,69.411765%,74.117647%);fill-opacity:1;" d="M 29.855469 23.5 L 29.273438 23.5 L 29.273438 17.691406 C 29.273438 17.53125 29.40625 17.398438 29.566406 17.398438 C 29.726562 17.398438 29.855469 17.53125 29.855469 17.691406 Z M 29.855469 23.5 "/>
<path style=" stroke:none;fill-rule:evenodd;fill:rgb(43.921569%,67.058824%,67.058824%);fill-opacity:1;" d="M 23.679688 23.5 L 23.09375 23.5 L 23.09375 17.691406 C 23.09375 17.53125 23.226562 17.398438 23.386719 17.398438 C 23.546875 17.398438 23.679688 17.53125 23.679688 17.691406 Z M 23.679688 23.5 "/>
<path style=" stroke:none;fill-rule:evenodd;fill:rgb(39.215686%,58.823529%,68.627451%);fill-opacity:1;" d="M 7.351562 30.9375 L 3.535156 30.9375 C 2.722656 30.9375 2.058594 30.277344 2.058594 29.464844 L 2.058594 23.390625 C 2.058594 23.023438 2.597656 23.007812 2.644531 23.34375 L 8.242188 23.34375 C 8.289062 23.007812 8.824219 23.023438 8.824219 23.390625 L 8.824219 29.464844 C 8.824219 30.277344 8.164062 30.9375 7.351562 30.9375 Z M 7.351562 30.9375 "/>
<path style=" stroke:none;fill-rule:evenodd;fill:rgb(36.470588%,54.117647%,62.745098%);fill-opacity:1;" d="M 5.734375 30.9375 L 5.148438 30.9375 L 5.148438 23.34375 L 5.734375 23.34375 Z M 5.734375 30.9375 "/>
<path style=" stroke:none;fill-rule:evenodd;fill:rgb(71.764706%,90.196078%,94.117647%);fill-opacity:1;" d="M 10.542969 23.5 C 7.101562 23.5 3.78125 23.5 0.339844 23.5 C 0.179688 23.5 0.046875 23.367188 0.046875 23.207031 L 0.046875 16.101562 C 0.046875 14.3125 1.5 12.855469 3.289062 12.855469 L 7.59375 12.855469 C 9.382812 12.855469 10.835938 14.3125 10.835938 16.101562 L 10.835938 23.207031 C 10.835938 23.367188 10.707031 23.5 10.542969 23.5 Z M 10.542969 23.5 "/>
<path style=" stroke:none;fill-rule:evenodd;fill:rgb(84.313725%,88.235294%,89.019608%);fill-opacity:1;" d="M 5.441406 12.191406 C 3.839844 12.191406 2.535156 10.886719 2.535156 9.285156 C 2.535156 7.679688 3.839844 6.378906 5.441406 6.378906 C 7.046875 6.378906 8.347656 7.679688 8.347656 9.285156 C 8.347656 10.886719 7.042969 12.191406 5.441406 12.191406 Z M 5.441406 12.191406 "/>
<path style=" stroke:none;fill-rule:evenodd;fill:rgb(56.470588%,74.509804%,78.039216%);fill-opacity:1;" d="M 8.824219 23.5 L 8.242188 23.5 L 8.242188 17.691406 C 8.242188 17.53125 8.371094 17.398438 8.535156 17.398438 C 8.695312 17.398438 8.824219 17.53125 8.824219 17.691406 Z M 8.824219 23.5 "/>
<path style=" stroke:none;fill-rule:evenodd;fill:rgb(60.784314%,75.294118%,78.039216%);fill-opacity:1;" d="M 2.648438 23.5 L 2.0625 23.5 L 2.0625 17.691406 C 2.0625 17.53125 2.195312 17.398438 2.355469 17.398438 C 2.515625 17.398438 2.648438 17.53125 2.648438 17.691406 Z M 2.648438 23.5 "/>
<path style=" stroke:none;fill-rule:evenodd;fill:rgb(83.921569%,88.235294%,89.019608%);fill-opacity:1;" d="M 18.289062 30.949219 L 13.628906 30.949219 C 12.636719 30.949219 11.828125 30.144531 11.828125 29.152344 L 11.828125 21.738281 C 11.828125 21.285156 12.484375 21.265625 12.542969 21.679688 L 19.375 21.679688 C 19.433594 21.265625 20.089844 21.285156 20.089844 21.738281 L 20.089844 29.152344 C 20.085938 30.144531 19.28125 30.949219 18.289062 30.949219 Z M 18.289062 30.949219 "/>
<path style=" stroke:none;fill-rule:evenodd;fill:rgb(69.019608%,79.215686%,81.176471%);fill-opacity:1;" d="M 16.316406 30.949219 L 15.601562 30.949219 L 15.601562 21.679688 L 16.316406 21.679688 Z M 16.316406 30.949219 "/>
<path style=" stroke:none;fill-rule:evenodd;fill:rgb(82.745098%,87.843137%,89.019608%);fill-opacity:1;" d="M 22.1875 21.867188 C 17.984375 21.867188 13.929688 21.867188 9.730469 21.867188 C 9.53125 21.867188 9.371094 21.707031 9.371094 21.507812 L 9.371094 12.835938 C 9.371094 10.652344 11.148438 8.875 13.332031 8.875 L 18.585938 8.875 C 20.769531 8.875 22.546875 10.652344 22.546875 12.835938 L 22.546875 21.507812 C 22.546875 21.707031 22.382812 21.867188 22.1875 21.867188 Z M 22.1875 21.867188 "/>
<path style=" stroke:none;fill-rule:evenodd;fill:rgb(77.647059%,81.176471%,81.960784%);fill-opacity:1;" d="M 15.957031 8.0625 C 14.003906 8.0625 12.410156 6.46875 12.410156 4.511719 C 12.410156 2.558594 14.003906 0.964844 15.957031 0.964844 C 17.914062 0.964844 19.503906 2.558594 19.503906 4.515625 C 19.503906 6.46875 17.914062 8.0625 15.957031 8.0625 Z M 15.957031 8.0625 "/>
<path style=" stroke:none;fill-rule:evenodd;fill:rgb(71.372549%,79.607843%,81.176471%);fill-opacity:1;" d="M 20.085938 21.867188 L 19.375 21.867188 L 19.375 14.777344 C 19.375 14.582031 19.535156 14.417969 19.730469 14.417969 C 19.925781 14.417969 20.085938 14.582031 20.085938 14.777344 Z M 20.085938 21.867188 "/>
<path style=" stroke:none;fill-rule:evenodd;fill:rgb(70.196078%,80%,81.960784%);fill-opacity:1;" d="M 12.546875 21.867188 L 11.832031 21.867188 L 11.832031 14.777344 C 11.832031 14.582031 11.992188 14.417969 12.1875 14.417969 C 12.386719 14.417969 12.546875 14.582031 12.546875 14.777344 Z M 12.546875 21.867188 "/>
</g>
</svg>
