<?xml version="1.0" encoding="UTF-8"?>
<svg xmlns="http://www.w3.org/2000/svg" xmlns:xlink="http://www.w3.org/1999/xlink" width="32px" height="32px" viewBox="0 0 32 32" version="1.1">
<g id="surface1">
<path style=" stroke:none;fill-rule:nonzero;fill:rgb(94.901961%,94.901961%,94.901961%);fill-opacity:1;" d="M 26.199219 20.796875 L 6.015625 20.761719 L 6.015625 26.046875 L 26.738281 26.046875 L 29.640625 24.171875 L 30.113281 21.21875 L 28.910156 19.648438 Z M 26.199219 20.796875 "/>
<path style=" stroke:none;fill-rule:nonzero;fill:rgb(96.862745%,96.862745%,96.862745%);fill-opacity:1;" d="M 22.894531 18.5 L 27.054688 18.710938 L 29.5 19.515625 L 30.113281 16.535156 L 28.789062 14.359375 L 26.570312 13.050781 L 7.808594 13.050781 L 2.191406 10.515625 L 1.894531 15.109375 L 3.289062 16.660156 L 5.636719 17.675781 L 10.136719 18.308594 Z M 22.894531 18.5 "/>
<path style=" stroke:none;fill-rule:nonzero;fill:rgb(72.156863%,72.156863%,72.156863%);fill-opacity:1;" d="M 5.355469 10.074219 C 6.269531 10.414062 8.855469 11.210938 13.214844 11.210938 C 17.574219 11.210938 20.160156 10.414062 21.074219 10.074219 C 21.171875 10.039062 21.253906 9.976562 21.3125 9.890625 C 21.371094 9.808594 21.40625 9.707031 21.40625 9.605469 C 21.40625 9.503906 21.371094 9.402344 21.3125 9.316406 C 21.253906 9.234375 21.171875 9.171875 21.074219 9.136719 C 20.160156 8.796875 17.574219 8 13.214844 8 C 8.855469 8 6.269531 8.796875 5.355469 9.136719 C 5.257812 9.171875 5.175781 9.234375 5.117188 9.316406 C 5.058594 9.402344 5.027344 9.503906 5.027344 9.605469 C 5.027344 9.707031 5.058594 9.808594 5.117188 9.890625 C 5.175781 9.976562 5.257812 10.039062 5.355469 10.074219 Z M 13.214844 9 C 15.203125 8.976562 17.1875 9.179688 19.128906 9.605469 C 17.1875 10.027344 15.203125 10.230469 13.214844 10.210938 C 11.226562 10.230469 9.242188 10.027344 7.300781 9.605469 C 9.242188 9.179688 11.226562 8.976562 13.214844 9 Z M 13.214844 9 "/>
<path style=" stroke:none;fill-rule:nonzero;fill:rgb(52.156863%,52.156863%,52.156863%);fill-opacity:1;" d="M 26.210938 12.710938 L 24.929688 12.710938 L 24.929688 9.605469 C 24.933594 9.578125 24.933594 9.550781 24.929688 9.523438 C 24.808594 6.910156 18.839844 5.523438 13.21875 5.523438 C 8 5.5 2.5 6.710938 1.628906 8.960938 C 1.550781 9.050781 1.503906 9.164062 1.5 9.285156 L 1.5 14.808594 C 1.5 17.425781 7.300781 18.859375 12.878906 18.914062 L 26.210938 18.914062 C 26.933594 18.914062 27.636719 19.15625 28.210938 19.601562 C 27.636719 20.042969 26.933594 20.285156 26.210938 20.285156 L 5.929688 20.285156 C 5.796875 20.285156 5.671875 20.335938 5.578125 20.429688 C 5.484375 20.523438 5.429688 20.652344 5.429688 20.785156 L 5.429688 26 C 5.429688 26.132812 5.484375 26.261719 5.578125 26.355469 C 5.671875 26.449219 5.796875 26.5 5.929688 26.5 L 26.210938 26.5 C 27.347656 26.5 28.4375 26.046875 29.242188 25.242188 C 30.046875 24.4375 30.5 23.347656 30.5 22.210938 L 30.5 17 C 30.5 15.863281 30.046875 14.773438 29.242188 13.96875 C 28.4375 13.164062 27.347656 12.710938 26.210938 12.710938 Z M 21 12.710938 C 22.046875 12.4375 23.03125 11.972656 23.910156 11.34375 L 23.910156 12.710938 Z M 13.214844 6.5 C 19.34375 6.5 23.929688 8.140625 23.929688 9.605469 C 23.929688 11.070312 19.34375 12.710938 13.214844 12.710938 C 7.085938 12.710938 2.5 11.070312 2.5 9.605469 C 2.5 8.140625 7.085938 6.5 13.214844 6.5 Z M 26.898438 18 L 26.898438 17.210938 C 26.898438 17.078125 26.847656 16.949219 26.753906 16.855469 C 26.660156 16.761719 26.53125 16.710938 26.398438 16.710938 C 26.265625 16.710938 26.140625 16.761719 26.046875 16.855469 C 25.953125 16.949219 25.898438 17.078125 25.898438 17.210938 L 25.898438 17.921875 L 22.738281 17.921875 L 22.738281 16 C 22.738281 15.867188 22.6875 15.738281 22.59375 15.644531 C 22.5 15.550781 22.371094 15.5 22.238281 15.5 C 22.105469 15.5 21.980469 15.550781 21.886719 15.644531 C 21.792969 15.738281 21.738281 15.867188 21.738281 16 L 21.738281 17.921875 L 18.578125 17.921875 L 18.578125 17.210938 C 18.578125 17.078125 18.527344 16.949219 18.433594 16.855469 C 18.339844 16.761719 18.210938 16.710938 18.078125 16.710938 C 17.949219 16.710938 17.820312 16.761719 17.726562 16.855469 C 17.632812 16.949219 17.578125 17.078125 17.578125 17.210938 L 17.578125 17.921875 L 14.421875 17.921875 L 14.421875 16 C 14.421875 15.867188 14.367188 15.738281 14.273438 15.644531 C 14.179688 15.550781 14.050781 15.5 13.921875 15.5 C 13.789062 15.5 13.660156 15.550781 13.566406 15.644531 C 13.472656 15.738281 13.421875 15.867188 13.421875 16 L 13.421875 17.921875 L 13.214844 17.921875 C 12.179688 17.921875 11.214844 17.871094 10.261719 17.785156 L 10.261719 17.210938 C 10.261719 17.078125 10.207031 16.949219 10.113281 16.855469 C 10.019531 16.761719 9.894531 16.710938 9.761719 16.710938 C 9.628906 16.710938 9.5 16.761719 9.40625 16.855469 C 9.3125 16.949219 9.261719 17.078125 9.261719 17.210938 L 9.261719 17.675781 C 8.195312 17.546875 7.136719 17.347656 6.101562 17.070312 L 6.101562 16 C 6.101562 15.867188 6.046875 15.738281 5.953125 15.644531 C 5.859375 15.550781 5.734375 15.5 5.601562 15.5 C 5.46875 15.5 5.339844 15.550781 5.246094 15.644531 C 5.152344 15.738281 5.101562 15.867188 5.101562 16 L 5.101562 16.761719 C 3.46875 16.191406 2.5 15.5 2.5 14.816406 L 2.5 11.34375 C 4.398438 12.84375 8.71875 13.671875 12.914062 13.703125 L 26.210938 13.703125 C 26.8125 13.703125 27.402344 13.871094 27.914062 14.179688 C 28.429688 14.492188 28.847656 14.9375 29.125 15.472656 C 29.40625 16.003906 29.53125 16.605469 29.492188 17.203125 C 29.457031 17.804688 29.253906 18.382812 28.910156 18.875 C 28.328125 18.410156 27.636719 18.109375 26.898438 18 Z M 26.5 25.5 L 26.5 24.789062 C 26.5 24.65625 26.449219 24.53125 26.355469 24.4375 C 26.261719 24.34375 26.132812 24.289062 26 24.289062 C 25.867188 24.289062 25.738281 24.34375 25.644531 24.4375 C 25.550781 24.53125 25.5 24.65625 25.5 24.789062 L 25.5 25.5 L 22.339844 25.5 L 22.339844 23.578125 C 22.339844 23.449219 22.289062 23.320312 22.195312 23.226562 C 22.101562 23.132812 21.972656 23.078125 21.839844 23.078125 C 21.707031 23.078125 21.582031 23.132812 21.488281 23.226562 C 21.394531 23.320312 21.339844 23.449219 21.339844 23.578125 L 21.339844 25.5 L 18.179688 25.5 L 18.179688 24.789062 C 18.179688 24.65625 18.128906 24.53125 18.035156 24.4375 C 17.941406 24.34375 17.8125 24.289062 17.679688 24.289062 C 17.546875 24.289062 17.421875 24.34375 17.328125 24.4375 C 17.234375 24.53125 17.179688 24.65625 17.179688 24.789062 L 17.179688 25.5 L 14 25.5 L 14 23.578125 C 14 23.449219 13.949219 23.320312 13.855469 23.226562 C 13.761719 23.132812 13.632812 23.078125 13.5 23.078125 C 13.367188 23.078125 13.238281 23.132812 13.144531 23.226562 C 13.050781 23.320312 13 23.449219 13 23.578125 L 13 25.5 L 9.859375 25.5 L 9.859375 24.789062 C 9.859375 24.65625 9.808594 24.53125 9.714844 24.4375 C 9.621094 24.34375 9.492188 24.289062 9.359375 24.289062 C 9.226562 24.289062 9.101562 24.34375 9.007812 24.4375 C 8.914062 24.53125 8.859375 24.65625 8.859375 24.789062 L 8.859375 25.5 L 6.429688 25.5 L 6.429688 21.289062 L 26.210938 21.289062 C 27.195312 21.289062 28.148438 20.949219 28.910156 20.328125 C 29.242188 20.804688 29.445312 21.355469 29.496094 21.933594 C 29.546875 22.507812 29.445312 23.085938 29.199219 23.613281 C 28.957031 24.136719 28.578125 24.585938 28.105469 24.917969 C 27.628906 25.25 27.078125 25.449219 26.5 25.5 Z M 26.5 25.5 "/>
</g>
</svg>
