<?xml version="1.0" encoding="UTF-8"?>
<svg xmlns="http://www.w3.org/2000/svg" xmlns:xlink="http://www.w3.org/1999/xlink" width="32px" height="32px" viewBox="0 0 32 32" version="1.1">
<g id="surface1">
<path style=" stroke:none;fill-rule:nonzero;fill:rgb(42.352941%,83.921569%,92.156863%);fill-opacity:1;" d="M 30 18 L 26 18 L 26 14 C 26 13.449219 25.550781 13 25 13 L 23.933594 13 C 23.652344 10.824219 22.496094 8.859375 20.726562 7.558594 C 20.902344 7.058594 20.992188 6.53125 21 6 C 21 3.238281 18.761719 1 16 1 C 13.238281 1 11 3.238281 11 6 C 11.007812 6.53125 11.097656 7.058594 11.273438 7.558594 C 9.480469 8.878906 8.3125 10.886719 8.058594 13.101562 C 5.707031 13.550781 4.003906 15.605469 4 18 C 4.007812 18.53125 4.097656 19.058594 4.273438 19.558594 C 2.222656 21.066406 1.007812 23.457031 1 26 C 1 26.550781 1.449219 27 2 27 C 2.550781 27 3 26.550781 3 26 C 3.003906 24.167969 3.839844 22.4375 5.277344 21.300781 C 6.214844 22.378906 7.570312 22.996094 9 22.996094 C 10.429688 22.996094 11.785156 22.378906 12.722656 21.300781 C 14.160156 22.4375 14.996094 24.167969 15 26 C 15 26.550781 15.449219 27 16 27 C 16.550781 27 17 26.550781 17 26 C 16.996094 24.824219 16.730469 23.660156 16.222656 22.601562 C 16.40625 22.847656 16.691406 22.996094 17 23 L 21 23 L 21 27 C 21 27.550781 21.449219 28 22 28 L 25 28 C 25.550781 28 26 27.550781 26 27 L 26 23 L 30 23 C 30.550781 23 31 22.550781 31 22 L 31 19 C 31 18.449219 30.550781 18 30 18 Z M 16 3 C 17.65625 3 19 4.34375 19 6 C 19 7.65625 17.65625 9 16 9 C 14.34375 9 13 7.65625 13 6 C 13 4.34375 14.34375 3 16 3 Z M 9 21 C 7.34375 21 6 19.65625 6 18 C 6 16.34375 7.34375 15 9 15 C 10.65625 15 12 16.34375 12 18 C 12 19.65625 10.65625 21 9 21 Z M 16 19 L 16 22 C 16.003906 22.089844 16.023438 22.175781 16.050781 22.257812 C 15.488281 21.195312 14.695312 20.273438 13.726562 19.558594 C 13.902344 19.058594 13.992188 18.53125 14 18 C 13.996094 15.652344 12.363281 13.625 10.070312 13.121094 C 10.296875 11.613281 11.082031 10.25 12.277344 9.300781 C 13.214844 10.378906 14.570312 10.996094 16 10.996094 C 17.429688 10.996094 18.785156 10.378906 19.722656 9.300781 C 20.886719 10.226562 21.664062 11.550781 21.910156 13.015625 C 21.394531 13.058594 21 13.484375 21 14 L 21 18 L 17 18 C 16.449219 18 16 18.449219 16 19 Z M 16 19 "/>
</g>
</svg>
